<svg aria-hidden="true" style="position: absolute; width: 0; height: 0; overflow: hidden;" version="1.1" xmlns="http://www.w3.org/2000/svg" xmlns:xlink="http://www.w3.org/1999/xlink">
<defs>
<symbol id="icon-test" viewBox="0 0 31 32">
<path fill="#ccc" style="fill: var(--color1, #ccc)" d="M12.791 2.211c5.854 0 10.58 4.77 10.58 10.623s-4.77 10.58-10.58 10.58-10.623-4.77-10.623-10.623 4.77-10.58 10.623-10.58zM12.791 0c-7.068 0-12.791 5.724-12.791 12.791s5.724 12.791 12.791 12.791 12.791-5.724 12.791-12.791-5.767-12.791-12.791-12.791v0z"></path>
<path fill="#fff" style="fill: var(--color2, #fff)" d="M30.309 30.873c-0.434-0.477-8.715-9.713-8.715-9.713z"></path>
<path fill="#ccc" style="fill: var(--color1, #ccc)" d="M22.374 20.466l8.715 9.713c0.39 0.434 0.347 1.127-0.087 1.561-0.434 0.39-1.127 0.347-1.561-0.087l-8.672-9.756 1.604-1.431z"></path>
</symbol>
<symbol id="icon-search" viewBox="0 0 31 32">
<path fill="#ccc" style="fill: var(--color1, #ccc)" d="M12.784 2.195c0.003 0 0.006 0 0.009 0 5.867 0 10.623 4.756 10.623 10.623s-4.756 10.623-10.623 10.623c-5.867 0-10.623-4.756-10.623-10.623 0-0.002 0-0.003 0-0.005v0c0-0.001 0-0.003 0-0.004 0-5.862 4.752-10.615 10.615-10.615v0zM12.784 0c-0.010-0-0.023-0-0.035-0-7.079 0-12.818 5.739-12.818 12.818s5.739 12.818 12.818 12.818c7.079 0 12.818-5.739 12.818-12.818 0-0.002 0-0.003 0-0.005v0c0-0.004 0-0.008 0-0.013 0-7.064-5.721-12.791-12.783-12.801h-0.001z"></path>
<path fill="#fff" style="fill: var(--color2, #fff)" d="M30.304 30.903l-8.723-9.712z"></path>
<path fill="#ccc" style="fill: var(--color1, #ccc)" d="M22.392 20.453l8.728 9.717c0.146 0.185 0.235 0.421 0.235 0.679 0 0.606-0.491 1.097-1.097 1.097-0.295 0-0.563-0.116-0.76-0.306l0 0-8.732-9.717z"></path>
</symbol>
</defs>
</svg>
