<svg aria-hidden="true" style="position: absolute; width: 0; height: 0; overflow: hidden;" version="1.1" xmlns="http://www.w3.org/2000/svg" xmlns:xlink="http://www.w3.org/1999/xlink">
<defs>
<symbol id="icon-search" viewBox="0 0 31 32">
<path fill="#ccc" style="fill: var(--color1, #ccc)" d="M12.872 2.565c0.008-0 0.017-0 0.026-0 5.708 0 10.336 4.628 10.336 10.336s-4.628 10.336-10.336 10.336c-5.708 0-10.336-4.628-10.336-10.336 0 0 0 0 0-0v0c0-0 0-0.001 0-0.001 0-5.699 4.613-10.32 10.308-10.335h0.001zM12.872 0.43c-0.009-0-0.020-0-0.031-0-6.887 0-12.471 5.583-12.471 12.471s5.583 12.471 12.471 12.471c6.887 0 12.471-5.583 12.471-12.471v0c0-0.005 0-0.010 0-0.016 0-6.873-5.567-12.446-12.439-12.455h-0.001z"></path>
<path fill="#ccc" style="fill: var(--color1, #ccc)" d="M12.872 25.794c-0.009 0-0.020 0-0.031 0-7.121 0-12.893-5.772-12.893-12.893s5.772-12.893 12.893-12.893c7.121 0 12.893 5.772 12.893 12.893 0 0 0 0 0 0v-0c0 0 0 0.001 0 0.001 0 7.109-5.755 12.875-12.86 12.892h-0.002zM12.872 0.852c-0.009-0-0.020-0-0.031-0-6.654 0-12.049 5.394-12.049 12.049s5.394 12.049 12.049 12.049c6.654 0 12.049-5.394 12.049-12.048v0c0-0.001 0-0.001 0-0.002 0-6.643-5.377-12.030-12.016-12.047h-0.002zM12.872 23.659c-0.008 0-0.017 0-0.026 0-5.941 0-10.758-4.816-10.758-10.758s4.816-10.758 10.758-10.758c5.941 0 10.758 4.816 10.758 10.758 0 0 0 0 0 0v0c0 0 0 0 0 0 0 5.932-4.802 10.743-10.731 10.757h-0.001zM12.872 2.987c-0.008-0-0.017-0-0.026-0-5.475 0-9.914 4.438-9.914 9.914s4.439 9.914 9.914 9.914c5.475 0 9.913-4.438 9.914-9.913v-0c0-0.001 0-0.001 0-0.002 0-5.466-4.424-9.898-9.887-9.912h-0.001z"></path>
<path fill="#fff" style="fill: var(--color2, #fff)" d="M29.924 30.504l-8.492-9.455z"></path>
<path fill="#ccc" style="fill: var(--color1, #ccc)" d="M22.223 20.335l8.493 9.455c0.173 0.189 0.278 0.441 0.278 0.718 0 0.589-0.477 1.066-1.066 1.066-0.315 0-0.599-0.137-0.794-0.355l-0.001-0.001-8.492-9.455z"></path>
<path fill="#ccc" style="fill: var(--color1, #ccc)" d="M29.926 31.994c-0.026 0-0.052-0.001-0.078-0.002-0.41-0.021-0.773-0.206-1.028-0.49l-0.001-0.001-8.774-9.769 2.209-1.994 8.775 9.77c0.236 0.263 0.38 0.613 0.38 0.996 0 0.438-0.189 0.832-0.489 1.106l-0.001 0.001c-0.261 0.238-0.609 0.383-0.991 0.383-0.001 0-0.001 0-0.002 0h0zM21.236 21.794l8.211 9.142c0.118 0.131 0.288 0.213 0.477 0.213 0.166 0 0.317-0.063 0.43-0.166l-0.001 0c0.131-0.119 0.213-0.29 0.213-0.48 0-0.166-0.063-0.318-0.166-0.433l0.001 0.001-8.21-9.14z"></path>
</symbol>
<symbol id="icon-search1" viewBox="0 0 32 32">
<path d="M31.008 27.231l-7.58-6.447c-0.784-0.705-1.622-1.029-2.299-0.998 1.789-2.096 2.87-4.815 2.87-7.787 0-6.627-5.373-12-12-12s-12 5.373-12 12 5.373 12 12 12c2.972 0 5.691-1.081 7.787-2.87-0.031 0.677 0.293 1.515 0.998 2.299l6.447 7.58c1.104 1.226 2.907 1.33 4.007 0.23s0.997-2.903-0.23-4.007zM12 20c-4.418 0-8-3.582-8-8s3.582-8 8-8 8 3.582 8 8-3.582 8-8 8z"></path>
</symbol>
</defs>
</svg>
