<svg aria-hidden="true" style="position: absolute; width: 0; height: 0; overflow: hidden;" version="1.1" xmlns="http://www.w3.org/2000/svg" xmlns:xlink="http://www.w3.org/1999/xlink">
<defs>
<symbol id="icon-search" viewBox="0 0 31 32">
<path fill="#ccc" style="fill: var(--color1, #ccc)" d="M29.896 31.988c-0.001 0-0.002 0-0.003 0-0.429 0-0.816-0.184-1.085-0.477l-0.001-0.001-9.041-9.83c-0.238-0.261-0.383-0.61-0.383-0.993 0-0.816 0.662-1.478 1.478-1.478 0.426 0 0.811 0.181 1.080 0.469l0.001 0.001 9.041 9.83c0.242 0.262 0.39 0.614 0.39 1 0 0.816-0.662 1.478-1.478 1.478h-0z"></path>
<path fill="#ccc" style="fill: var(--color1, #ccc)" d="M12.6 2.942c5.326 0 9.644 4.318 9.644 9.644s-4.318 9.644-9.644 9.644c-5.326 0-9.644-4.318-9.644-9.644v0c0.006-5.324 4.32-9.638 9.644-9.644h0.001zM12.6-0.014c-6.959 0-12.6 5.641-12.6 12.6s5.641 12.6 12.6 12.6c6.959 0 12.6-5.641 12.6-12.6v0c0 0 0-0 0-0 0-6.959-5.641-12.6-12.6-12.6-0 0-0 0-0 0v0z"></path>
</symbol>
<symbol id="icon-menu" viewBox="0 0 32 32">
<path fill="#ccc" style="fill: var(--color1, #ccc)" d="M30.779 6.129h-29.193c-0.842 0-1.524-0.682-1.524-1.524s0.682-1.524 1.524-1.524v0h29.193c0.842 0 1.524 0.682 1.524 1.524s-0.682 1.524-1.524 1.524v0z"></path>
<path fill="#ccc" style="fill: var(--color1, #ccc)" d="M30.779 17.476h-29.193c-0.842 0-1.524-0.682-1.524-1.524s0.682-1.524 1.524-1.524v0h29.193c0.842 0 1.524 0.682 1.524 1.524s-0.682 1.524-1.524 1.524v0z"></path>
<path fill="#ccc" style="fill: var(--color1, #ccc)" d="M30.779 28.92h-29.193c-0.842 0-1.524-0.682-1.524-1.524s0.682-1.524 1.524-1.524v0h29.193c0.842 0 1.524 0.682 1.524 1.524s-0.682 1.524-1.524 1.524v0z"></path>
</symbol>
<symbol id="icon-cart" viewBox="0 0 32 32">
<path fill="#ccc" style="fill: var(--color1, #ccc)" d="M30.747 31.93h-29.086c-0.842 0-1.524-0.682-1.524-1.524v0-22.387c0-0.842 0.682-1.524 1.524-1.524v0h29.086c0.842 0 1.524 0.682 1.524 1.524v0 22.387c-0 0.842-0.682 1.524-1.524 1.524v0zM3.185 28.881h26.038v-19.339h-26.038z"></path>
<path fill="#ccc" style="fill: var(--color1, #ccc)" d="M22.203 9.138c-0.842-0-1.524-0.682-1.524-1.524v0c-0.008-2.477-2.018-4.482-4.496-4.482s-4.488 2.005-4.496 4.481v0.001c0 0.842-0.682 1.524-1.524 1.524s-1.524-0.682-1.524-1.524v0c0.010-4.159 3.384-7.527 7.545-7.527s7.534 3.368 7.545 7.526v0.001c-0 0.842-0.682 1.524-1.524 1.524v0z"></path>
</symbol>
</defs>
</svg>
