<svg id="Layer_1" data-name="Layer 1" xmlns="http://www.w3.org/2000/svg" width="26.2182mm" height="25.922mm" viewBox="0 0 74.3194 73.4797"><defs><style>.cls-1{fill:#ccc;}</style></defs><path class="cls-1" d="M70.6029,73.3179H3.8139a3.5,3.5,0,0,1-3.5-3.5V18.4116a3.5,3.5,0,0,1,3.5-3.5h66.789a3.5005,3.5005,0,0,1,3.5,3.5V69.8179A3.5005,3.5005,0,0,1,70.6029,73.3179Zm-63.289-7h59.789V21.9116H7.3139Z"/><path class="cls-1" d="M50.9838,20.9839a3.5005,3.5005,0,0,1-3.5-3.5,10.3243,10.3243,0,0,0-20.6485,0,3.5,3.5,0,0,1-7,0,17.3243,17.3243,0,0,1,34.6485,0A3.5005,3.5005,0,0,1,50.9838,20.9839Z"/></svg>