<svg id="Layer_1" data-name="Layer 1" xmlns="http://www.w3.org/2000/svg" width="26.2543mm" height="26.7428mm" viewBox="0 0 74.4218 75.8063"><defs><style>.cls-1{fill:#ccc;}.cls-2{fill:#fff;}</style></defs><path class="cls-1" d="M30.4934,6.0765A24.4852,24.4852,0,1,1,6.07,30.5616,24.4822,24.4822,0,0,1,30.4934,6.0765m0-5.0574A29.5426,29.5426,0,1,0,59.9619,30.5616,29.5056,29.5056,0,0,0,30.4934,1.0191Z"/><path class="cls-1" d="M30.4935,61.1039a30.5425,30.5425,0,1,1,30.4682-30.542A30.54,30.54,0,0,1,30.4935,61.1039Zm0-59.0849A28.5425,28.5425,0,1,0,58.9617,30.5619,28.5384,28.5384,0,0,0,30.4935,2.019Zm0,54.0273A25.4849,25.4849,0,1,1,55.9173,30.5619,25.4834,25.4834,0,0,1,30.4935,56.0463Zm0-48.97A23.4849,23.4849,0,1,0,53.9173,30.5619,23.481,23.481,0,0,0,30.4935,7.0766Z"/><path class="cls-2" d="M70.8877,72.2629,50.77,49.8643"/><path class="cls-1" d="M52.644,48.1724,72.7624,70.5712a2.5253,2.5253,0,1,1-3.7491,3.3841L48.896,51.5565Z"/><path class="cls-1" d="M70.8934,75.7924c-.0616,0-.1231-.002-.1856-.0049A3.5026,3.5026,0,0,1,68.27,74.6244L47.4852,51.4819l5.2329-4.7237L73.5067,69.9028a3.54,3.54,0,0,1-.2608,4.9814A3.49,3.49,0,0,1,70.8934,75.7924ZM50.3065,51.63,69.7576,73.2875a1.5162,1.5162,0,0,0,2.1475.1123,1.5348,1.5348,0,0,0,.1133-2.1611L52.57,49.5863Z"/></svg>