<svg id="Layer_1" data-name="Layer 1" xmlns="http://www.w3.org/2000/svg" width="26.2182mm" height="26.7312mm" viewBox="0 0 74.3194 75.7734"><defs><style>.cls-1{fill:#ccc;}</style></defs><path class="cls-1" d="M70.7914,75.7441a3.4888,3.4888,0,0,1-2.5772-1.1308L46.806,51.3359a3.5,3.5,0,0,1,5.1524-4.7382L73.3666,69.875a3.5,3.5,0,0,1-2.5752,5.8691Z"/><path class="cls-1" d="M29.8367,6.9669A22.8367,22.8367,0,1,1,7,29.8036,22.8626,22.8626,0,0,1,29.8367,6.9669m0-7A29.8367,29.8367,0,1,0,59.6735,29.8036,29.8366,29.8366,0,0,0,29.8367-.0331Z"/></svg>